<svg width="46" height="43" viewBox="0 0 46 43" fill="none" xmlns="http://www.w3.org/2000/svg">
<path d="M0 6.01075C0 2.69111 2.67734 0 5.98 0H26.22C29.5227 0 32.2 2.69111 32.2 6.01075V26.3548C32.2 29.6745 29.5227 32.3656 26.22 32.3656H5.98C2.67734 32.3656 0 29.6745 0 26.3548V6.01075Z" fill="black"/>
<path d="M13.8 16.6452C13.8 13.3255 16.4773 10.6344 19.78 10.6344H40.02C43.3227 10.6344 46 13.3255 46 16.6452V36.9892C46 40.3089 43.3227 43 40.02 43H19.78C16.4773 43 13.8 40.3089 13.8 36.9892V16.6452Z" fill="url(#paint0_linear_1_15)"/>
<path d="M22.476 30.0538H19.7728V22.9922H22.4485C23.1712 22.9922 23.7955 23.1335 24.3215 23.4163C24.8498 23.6967 25.2569 24.1013 25.5427 24.63C25.8309 25.1564 25.975 25.7874 25.975 26.523C25.975 27.2586 25.832 27.8907 25.5462 28.4194C25.2603 28.9458 24.8555 29.3504 24.3318 29.6331C23.8081 29.9135 23.1895 30.0538 22.476 30.0538ZM21.6801 28.4263H22.4074C22.755 28.4263 23.0511 28.37 23.2958 28.2573C23.5428 28.1447 23.7303 27.9505 23.8584 27.6746C23.9888 27.3988 24.054 27.0149 24.054 26.523C24.054 26.0311 23.9876 25.6472 23.855 25.3713C23.7246 25.0955 23.5325 24.9012 23.2787 24.7886C23.0271 24.676 22.7184 24.6197 22.3525 24.6197H21.6801V28.4263Z" fill="black"/>
<path d="M26.8574 30.0538V22.9922H31.9207V24.5369H28.7647V25.7506H31.66V27.2953H28.7647V28.509H31.907V30.0538H26.8574Z" fill="black"/>
<path d="M34.7877 22.9922L36.2284 27.9711H36.2833L37.7241 22.9922H39.8784L37.5594 30.0538H34.9523L32.6334 22.9922H34.7877Z" fill="black"/>
<path d="M10.4833 20.8065V18.9859L16.1758 11.349H10.5068V8.70088H20.3393V10.5214L14.6468 18.1584H20.3158V20.8065H10.4833Z" fill="black"/>
<path d="M8.1833 20.8065V18.9859L13.8758 11.349H8.20682V8.70088H18.0393V10.5214L12.3468 18.1584H18.0158V20.8065H8.1833Z" fill="white"/>
<defs>
<linearGradient id="paint0_linear_1_15" x1="23" y1="0" x2="41.7566" y2="45.7738" gradientUnits="userSpaceOnUse">
<stop offset="0.331731" stop-color="white"/>
<stop offset="0.774038" stop-color="#C9C9C9" stop-opacity="0.9"/>
<stop offset="1" stop-color="#999999" stop-opacity="0.49"/>
</linearGradient>
</defs>
</svg>
